<?xml version="1.0" encoding="UTF-8" standalone="no"?>
<svg width="1000" height="1000" viewBox="0 0 1000 1000" xmlns="http://www.w3.org/2000/svg">
  <!-- Engineering tools pattern for background -->
  <style>
    .engineering-tool {
      fill: none;
      stroke: #1e40af;
      stroke-width: 1.5;
      stroke-linecap: round;
      stroke-linejoin: round;
      opacity: 0.08;
    }
  </style>
  
  <!-- Drafting Compass -->
  <g class="engineering-tool" transform="translate(100, 150) rotate(-15) scale(0.8)">
    <circle cx="50" cy="50" r="8" />
    <line x1="50" y1="50" x2="50" y2="150" />
    <line x1="50" y1="50" x2="120" y2="100" />
    <line x1="50" y1="150" x2="30" y2="180" />
    <line x1="120" y1="100" x2="140" y2="90" />
  </g>
  
  <!-- Laptop -->
  <g class="engineering-tool" transform="translate(700, 200) rotate(10) scale(0.9)">
    <rect x="20" y="20" width="120" height="80" rx="3" />
    <rect x="10" y="100" width="140" height="10" rx="2" />
    <line x1="80" y1="60" x2="80" y2="60" stroke-width="3" />
  </g>
  
  <!-- Calculator -->
  <g class="engineering-tool" transform="translate(300, 700) rotate(5) scale(0.7)">
    <rect x="20" y="20" width="80" height="120" rx="5" />
    <rect x="30" y="30" width="60" height="20" rx="2" />
    <circle cx="40" cy="70" r="5" />
    <circle cx="60" cy="70" r="5" />
    <circle cx="80" cy="70" r="5" />
    <circle cx="40" cy="90" r="5" />
    <circle cx="60" cy="90" r="5" />
    <circle cx="80" cy="90" r="5" />
    <circle cx="40" cy="110" r="5" />
    <circle cx="60" cy="110" r="5" />
    <circle cx="80" cy="110" r="5" />
  </g>
  
  <!-- Protractor -->
  <g class="engineering-tool" transform="translate(800, 600) rotate(-8) scale(0.8)">
    <path d="M 20,100 A 80,80 0 0,1 180,100 L 100,100 Z" />
    <line x1="100" y1="100" x2="100" y2="30" />
    <line x1="100" y1="100" x2="30" y2="100" />
    <line x1="100" y1="100" x2="170" y2="100" />
    <line x1="100" y1="100" x2="140" y2="60" />
    <line x1="100" y1="100" x2="60" y2="60" />
  </g>
  
  <!-- Computer Monitor -->
  <g class="engineering-tool" transform="translate(500, 300) rotate(3) scale(0.85)">
    <rect x="20" y="20" width="160" height="120" rx="5" />
    <rect x="70" y="140" width="60" height="10" />
    <rect x="60" y="150" width="80" height="5" />
  </g>
  
  <!-- Voltmeter -->
  <g class="engineering-tool" transform="translate(200, 400) rotate(-5) scale(0.7)">
    <rect x="20" y="20" width="100" height="60" rx="5" />
    <circle cx="70" cy="50" r="25" />
    <line x1="50" y1="70" x2="90" y2="30" />
    <line x1="30" y1="90" x2="30" y2="110" />
    <line x1="110" y1="90" x2="110" y2="110" />
  </g>
  
  <!-- T-Square -->
  <g class="engineering-tool" transform="translate(600, 800) rotate(15) scale(0.9)">
    <rect x="20" y="40" width="150" height="10" />
    <rect x="20" y="20" width="10" height="150" />
  </g>
  
  <!-- Ruler -->
  <g class="engineering-tool" transform="translate(400, 100) rotate(45) scale(0.8)">
    <rect x="20" y="40" width="200" height="10" />
    <line x1="30" y1="40" x2="30" y2="50" />
    <line x1="50" y1="40" x2="50" y2="50" />
    <line x1="70" y1="40" x2="70" y2="50" />
    <line x1="90" y1="40" x2="90" y2="50" />
    <line x1="110" y1="40" x2="110" y2="50" />
    <line x1="130" y1="40" x2="130" y2="50" />
    <line x1="150" y1="40" x2="150" y2="50" />
    <line x1="170" y1="40" x2="170" y2="50" />
    <line x1="190" y1="40" x2="190" y2="50" />
    <line x1="210" y1="40" x2="210" y2="50" />
  </g>
  
  <!-- Circuit Board -->
  <g class="engineering-tool" transform="translate(100, 550) rotate(8) scale(0.75)">
    <rect x="20" y="20" width="120" height="120" />
    <circle cx="40" cy="40" r="5" />
    <circle cx="40" cy="120" r="5" />
    <circle cx="120" cy="40" r="5" />
    <circle cx="120" cy="120" r="5" />
    <line x1="40" y1="40" x2="120" y2="40" />
    <line x1="40" y1="40" x2="40" y2="120" />
    <line x1="40" y1="120" x2="120" y2="120" />
    <line x1="120" y1="40" x2="120" y2="120" />
    <line x1="40" y1="40" x2="120" y2="120" />
    <line x1="40" y1="120" x2="120" y2="40" />
    <circle cx="80" cy="80" r="10" />
  </g>
  
  <!-- Microscope -->
  <g class="engineering-tool" transform="translate(850, 350) rotate(-12) scale(0.65)">
    <circle cx="80" cy="40" r="15" />
    <rect x="70" y="55" width="20" height="30" />
    <rect x="60" y="85" width="40" height="10" />
    <path d="M 70,95 L 60,130 L 100,130 L 90,95" />
    <rect x="50" y="130" width="60" height="10" />
  </g>
  
  <!-- Gears -->
  <g class="engineering-tool" transform="translate(450, 500) scale(0.8)">
    <circle cx="50" cy="50" r="30" />
    <circle cx="50" cy="50" r="10" />
    <path d="M 50,20 L 55,10 L 45,10 Z" />
    <path d="M 50,80 L 55,90 L 45,90 Z" />
    <path d="M 20,50 L 10,55 L 10,45 Z" />
    <path d="M 80,50 L 90,55 L 90,45 Z" />
    <path d="M 29,29 L 22,22 L 15,29 Z" />
    <path d="M 71,71 L 78,78 L 85,71 Z" />
    <path d="M 29,71 L 22,78 L 29,85 Z" />
    <path d="M 71,29 L 78,22 L 71,15 Z" />
  </g>
  
  <!-- Drafting Triangle -->
  <g class="engineering-tool" transform="translate(250, 250) rotate(25) scale(0.7)">
    <path d="M 20,120 L 120,20 L 120,120 Z" />
    <circle cx="20" cy="120" r="3" />
    <circle cx="120" cy="20" r="3" />
    <circle cx="120" cy="120" r="3" />
  </g>
</svg>
